<?xml version="1.0" encoding="utf-8"?>
<!-- Generator: Adobe Illustrator 18.1.0, SVG Export Plug-In . SVG Version: 6.00 Build 0)  -->
<!DOCTYPE svg PUBLIC "-//W3C//DTD SVG 1.1//EN" "http://www.w3.org/Graphics/SVG/1.1/DTD/svg11.dtd">
<svg version="1.1" id="Layer_1" xmlns="http://www.w3.org/2000/svg" xmlns:xlink="http://www.w3.org/1999/xlink" x="0px" y="0px"
	 viewBox="0 0 90.3 116.7" enable-background="new 0 0 90.3 116.7" xml:space="preserve">
<linearGradient id="SVGID_1_" gradientUnits="userSpaceOnUse" x1="45.1482" y1="6.743903e-09" x2="45.1482" y2="116.7367">
	<stop  offset="0" style="stop-color:#FFFFFF"/>
	<stop  offset="0.5066" style="stop-color:#FDFDFD"/>
	<stop  offset="0.7696" style="stop-color:#F5F5F5"/>
	<stop  offset="0.9763" style="stop-color:#E8E8E8"/>
	<stop  offset="1" style="stop-color:#E6E6E6"/>
</linearGradient>
<path fill-rule="evenodd" clip-rule="evenodd" fill="url(#SVGID_1_)" d="M6.2,12.8c10.2-4.1,27-4.7,34.3-4.4l4.7,6l4.7-6
	c7.3-0.3,24.1,0.3,34.3,4.4c-1.4,2.7-7.5,6.5-10.9,7.3c-0.2-5.3-7.6-6.3-14.7-6.3L45.1,85.4L31.8,13.8c-7.1,0-14.5,1.1-14.7,6.3
	C13.7,19.3,7.6,15.5,6.2,12.8L6.2,12.8z M1.4,5.7l2.6,3.8C13.9,6,25.7,4.4,38.1,4c4.7-0.1,9.5-0.1,14.1,0c12.4,0.4,24.1,2,34,5.5
	l2.6-3.8c-11.7-4-24.1-5.3-36.5-5.6C47.6,0,42.7,0,37.9,0.1C25.5,0.4,13.1,1.7,1.4,5.7L1.4,5.7z M77.4,109.2l12.5,0v7.5h-2.2v-5
	h-8.1v5h-2.2V109.2L77.4,109.2L77.4,109.2z M42,106.8L42,106.8h8c1.2-0.4,2.1-1.3,2.3-2.4H39.8v7.3h10.3v2.6h-8
	c-1.2,0.5-2,1.3-2.3,2.4l0,0.1h12.6v-7.5H42V106.8L42,106.8z M69,116.6L69,116.6c1.1-0.5,1.7-1.4,2-2.4H61l0-9.8l-2.2,0v12.2
	L69,116.6L69,116.6z M79.4,106.9L79.4,106.9H88c1.2-0.5,2.1-1.3,2.3-2.4H77C77.3,105.5,78.2,106.4,79.4,106.9L79.4,106.9z
	 M22.4,106.9L22.4,106.9H31c1.2-0.5,2.1-1.4,2.3-2.5H20.1C20.3,105.5,21.2,106.4,22.4,106.9L22.4,106.9z M22.4,116.7L22.4,116.7H31
	c1.2-0.5,2.1-1.4,2.3-2.5H20.1C20.3,115.3,21.2,116.2,22.4,116.7L22.4,116.7z M0,104.4L0,104.4c0.3,1.1,1.1,2,2.3,2.5H6l0.2,0.1v9.8
	h2.3v-9.8l0.2-0.1h3.6c1.2-0.5,2.1-1.4,2.3-2.5v0L0,104.4L0,104.4L0,104.4z M22.4,111.7H31c1.2-0.5,2.1-1.4,2.3-2.5H20.1
	C20.3,110.3,21.2,111.2,22.4,111.7L22.4,111.7z"/>
</svg>
